<?xml version="1.0" standalone="no"?>
<!DOCTYPE svg PUBLIC "-//W3C//DTD SVG 20010904//EN"
 "http://www.w3.org/TR/2001/REC-SVG-20010904/DTD/svg10.dtd">
<svg version="1.0" xmlns="http://www.w3.org/2000/svg"
 width="2056.000000pt" height="2056.000000pt" viewBox="0 0 2056.000000 2056.000000"
 preserveAspectRatio="xMidYMid meet">
<metadata>
Created by potrace 1.11, written by Peter Selinger 2001-2013
</metadata>
<g transform="translate(0.000000,2056.000000) scale(0.100000,-0.100000)"
fill="#000000" stroke="none">
<path d="M1389 18123 c-3 -48 0 -455 4 -460 3 -3 185 -6 404 -8 476 -3 593
-17 827 -97 569 -196 898 -684 953 -1413 9 -119 9 -9325 0 -9482 -7 -117 -21
-279 -32 -353 -2 -19 -7 -55 -10 -80 -3 -25 -8 -52 -10 -60 -2 -8 -6 -33 -9
-55 -4 -22 -11 -62 -16 -90 -6 -27 -12 -60 -15 -73 -45 -237 -178 -609 -296
-832 -44 -81 -136 -233 -162 -265 -4 -5 -24 -32 -45 -60 -67 -90 -223 -255
-307 -324 -164 -136 -415 -255 -590 -278 -27 -4 -236 -7 -462 -8 l-413 0 0
-247 0 -246 1268 -1 c697 0 1290 -1 1317 -1 l50 0 -35 -31 c-150 -131 -218
-181 -350 -252 -149 -81 -307 -130 -455 -142 -16 -2 -183 -3 -370 -4 l-340 -1
1 -110 c1 -61 4 -113 7 -117 5 -4 4727 -8 4972 -4 l41 1 0 115 0 115 -370 1
c-406 1 -408 1 -516 25 -206 45 -416 160 -610 333 -39 35 -69 66 -66 68 2 3
167 5 365 4 199 0 362 3 362 7 1 4 2 114 3 244 1 157 -2 238 -9 239 -5 0 -212
1 -460 3 -464 3 -473 3 -611 47 l-61 20 -38 77 c-128 261 -252 641 -300 923
-17 99 -35 213 -40 259 -4 30 -9 62 -10 70 -2 9 -6 57 -10 109 -4 51 -9 105
-12 119 -2 15 -6 582 -7 1260 -2 678 -5 1235 -8 1238 -3 3 -60 -21 -127 -52
l-121 -57 -2 -1151 c0 -633 -2 -1162 -3 -1176 -1 -14 -5 -68 -9 -120 -4 -52
-9 -108 -11 -125 -2 -16 -7 -57 -10 -90 -8 -77 -50 -326 -73 -429 -18 -78 -18
-78 -34 -55 -30 46 -108 209 -150 311 -95 236 -177 523 -213 748 -3 19 -10 60
-15 90 -5 30 -12 78 -15 105 -4 28 -8 60 -10 73 -2 12 -7 62 -10 110 -4 48 -9
98 -12 112 -8 30 -13 8084 -6 8077 3 -3 9 -20 13 -39 5 -18 45 -157 90 -308
45 -151 84 -284 87 -295 3 -11 18 -63 33 -115 15 -52 30 -104 33 -115 3 -11
35 -121 72 -245 36 -124 68 -232 70 -240 2 -8 24 -85 50 -170 25 -85 48 -162
50 -170 2 -8 58 -202 125 -430 67 -228 123 -419 124 -425 2 -5 9 -30 16 -55 7
-25 14 -49 16 -55 1 -5 27 -97 59 -203 31 -106 58 -201 60 -210 2 -9 4 -18 5
-19 2 -2 3 -6 5 -10 1 -5 4 -15 7 -23 5 -13 32 -109 43 -150 2 -8 24 -85 50
-170 25 -85 48 -162 50 -170 2 -8 58 -202 125 -430 111 -380 143 -489 154
-530 3 -8 19 -62 36 -120 17 -58 33 -112 35 -120 2 -8 33 -116 70 -240 36
-124 68 -232 70 -241 2 -9 18 -63 35 -120 17 -57 33 -111 35 -119 1 -8 31
-109 65 -225 34 -115 65 -219 68 -230 2 -11 29 -103 59 -205 30 -102 57 -194
60 -205 6 -24 59 -207 72 -250 11 -33 94 -317 195 -665 36 -124 117 -403 181
-620 64 -217 118 -404 120 -414 3 -11 11 -40 19 -65 8 -25 49 -163 90 -306 42
-143 98 -336 125 -430 103 -353 309 -1061 314 -1080 20 -73 137 -465 145 -485
5 -14 10 -29 10 -35 1 -5 16 -60 33 -122 l33 -112 428 1 c236 0 430 -1 432 -3
1 -2 29 -94 61 -204 106 -368 128 -440 136 -449 10 -12 2328 -12 2338 0 5 5
27 81 49 169 129 508 202 788 207 793 2 2 4 -56 3 -129 0 -74 0 -144 1 -156
l1 -21 1243 -1 c683 0 1261 0 1285 -1 l43 0 -29 -43 c-126 -183 -324 -315
-542 -360 -119 -25 -134 -26 -535 -27 l-380 0 -1 -115 -1 -115 26 -1 c34 -1
7896 -1 7939 0 l32 1 0 115 0 115 -632 1 c-348 0 -658 2 -688 5 -228 18 -449
108 -602 246 -45 40 -138 156 -138 172 0 8 166 10 615 9 l615 -2 0 244 c0 226
-1 245 -17 246 -10 0 -321 1 -690 1 -485 1 -673 4 -674 12 0 6 -2 1680 -4
3721 -1 2041 -3 3719 -4 3731 -1 16 -25 33 -103 74 -57 29 -150 78 -208 108
-58 30 -123 57 -145 60 -22 2 -114 41 -205 86 l-165 82 1 2420 c0 1330 2 2442
4 2469 17 288 128 474 344 575 64 30 207 75 266 85 19 3 60 10 90 15 30 5 87
12 125 16 39 4 86 8 105 11 19 2 285 6 590 8 305 2 569 4 586 4 l32 1 0 235 0
235 -3048 0 -3047 0 -12 -42 c-7 -23 -15 -50 -17 -60 -9 -42 -13 -56 -29 -118
-9 -36 -19 -72 -21 -80 -2 -8 -8 -33 -14 -55 -6 -22 -12 -47 -14 -55 -2 -9
-22 -85 -45 -170 -22 -85 -56 -216 -75 -290 -19 -74 -55 -215 -81 -313 -26
-99 -48 -188 -50 -199 -3 -12 -9 -35 -14 -52 -9 -28 -108 -408 -116 -446 -2
-8 -24 -94 -50 -190 -25 -96 -69 -263 -96 -370 -158 -613 -171 -664 -294
-1135 -45 -173 -117 -450 -121 -465 -11 -50 -44 -173 -57 -220 -9 -30 -19 -66
-21 -80 -3 -14 -69 -268 -146 -565 -78 -297 -143 -547 -144 -555 -2 -8 -20
-78 -41 -155 -20 -77 -38 -147 -40 -155 -2 -8 -28 -111 -59 -229 -31 -118 -58
-224 -61 -235 -2 -12 -25 -100 -50 -196 -26 -96 -48 -182 -50 -190 -2 -8 -17
-69 -35 -135 -34 -129 -120 -460 -125 -485 -2 -8 -36 -136 -75 -285 -38 -148
-107 -413 -152 -587 l-83 -318 -41 148 c-23 81 -97 338 -163 572 -67 234 -131
461 -142 505 -12 44 -30 107 -39 140 -10 33 -23 78 -29 100 -9 36 -29 55 -159
162 l-148 120 -79 204 c-109 283 -108 280 -170 333 -30 26 -55 54 -55 62 0 8
-9 14 -19 14 -11 0 -21 4 -23 8 -2 7 -82 80 -250 230 -14 13 -29 36 -32 50 -4
15 -13 50 -21 77 -29 98 -177 621 -191 670 -7 28 -31 113 -53 190 -22 77 -67
238 -101 359 -34 120 -86 304 -116 410 -30 105 -57 198 -59 206 -2 8 -13 49
-25 90 -11 41 -23 82 -25 90 -2 8 -23 80 -45 160 -23 80 -45 159 -50 175 -4
17 -25 89 -45 160 -20 72 -48 171 -61 220 -13 50 -33 119 -44 155 -11 36 -59
202 -106 370 -123 437 -352 1248 -366 1295 -6 22 -13 45 -14 52 -1 7 -11 43
-22 80 -22 72 -111 388 -118 413 -2 8 -20 71 -40 140 -20 69 -40 141 -44 160
-5 19 -16 60 -25 90 -9 30 -26 91 -38 135 l-22 80 -3242 3 c-1784 1 -3243 -1
-3244 -5z m6315 -355 c15 -57 38 -141 52 -188 14 -47 31 -107 39 -135 8 -27
47 -162 86 -300 39 -137 75 -266 79 -285 4 -19 36 -132 70 -250 34 -118 63
-222 65 -230 2 -8 38 -134 80 -280 42 -146 78 -274 81 -285 2 -11 10 -42 19
-70 19 -66 76 -266 81 -285 2 -8 37 -134 79 -280 42 -146 78 -273 80 -282 2
-9 44 -160 94 -335 111 -390 278 -980 296 -1048 17 -61 71 -252 91 -320 52
-175 150 -531 148 -534 -3 -3 -120 100 -210 184 -12 11 -61 56 -110 100 -48
44 -118 107 -154 140 -60 54 -89 70 -294 160 -126 55 -231 101 -235 103 -3 1
-19 -44 -34 -100 -15 -57 -52 -197 -83 -313 -31 -115 -58 -212 -59 -213 -3 -3
-206 26 -310 44 -94 16 -277 44 -308 47 -14 2 -80 -94 -278 -405 l-259 -408
-2 -174 -3 -174 -140 182 c-101 132 -193 269 -330 494 -135 221 -194 310 -204
306 -45 -15 -491 -288 -488 -298 2 -6 10 -35 17 -63 8 -29 18 -53 22 -53 9 0
282 158 328 190 14 9 39 24 55 33 l30 15 160 -260 c88 -144 187 -296 220 -338
235 -304 282 -365 300 -390 68 -96 160 -208 165 -200 3 4 5 158 4 342 0 253 3
339 12 359 11 22 125 205 219 349 12 19 66 105 120 190 54 85 99 156 101 158
1 2 28 -1 60 -7 33 -6 73 -13 89 -15 125 -20 226 -36 260 -41 22 -3 86 -13
143 -23 56 -10 107 -15 112 -12 6 4 44 137 86 296 42 159 77 290 79 292 2 2
69 -25 149 -59 l146 -62 183 -165 c100 -91 205 -185 233 -211 50 -46 187 -170
250 -226 29 -26 61 -91 50 -102 -2 -2 -119 55 -261 127 -142 73 -261 128 -266
123 -4 -4 -22 -44 -39 -88 -17 -44 -37 -93 -45 -110 -38 -85 -245 -610 -245
-621 0 -7 40 -70 88 -141 49 -70 149 -218 224 -329 l136 -200 -13 -70 c-8 -38
-16 -87 -19 -109 -4 -23 -8 -50 -10 -62 -3 -11 -7 -38 -11 -59 -7 -49 -13 -84
-25 -154 -5 -30 -12 -71 -15 -90 -3 -19 -7 -46 -10 -60 -3 -14 -7 -41 -10 -60
-24 -161 -29 -177 -87 -289 l-60 -113 188 98 c236 122 265 136 269 132 2 -2 6
-41 10 -88 3 -47 8 -101 10 -120 2 -19 6 -75 10 -125 3 -49 8 -106 10 -125 2
-19 7 -73 10 -120 4 -47 8 -101 10 -120 2 -19 6 -73 10 -119 4 -47 8 -93 10
-103 2 -10 -2 -18 -8 -19 -7 -1 -25 -2 -42 -4 -16 -1 -93 -6 -170 -10 -77 -4
-156 -9 -175 -10 -19 -1 -102 -6 -185 -10 l-150 -7 -135 112 c-74 62 -146 122
-160 134 -14 11 -50 41 -80 66 -30 24 -71 59 -90 77 -19 18 -40 33 -46 33 -6
0 -144 -114 -305 -254 -162 -140 -297 -252 -300 -248 -10 13 -392 487 -400
498 -5 6 -11 78 -15 160 -5 132 -11 254 -13 262 -1 2 -65 -31 -143 -72 -275
-144 -244 -121 -272 -204 l-24 -72 60 -208 c33 -114 98 -337 144 -497 47 -159
110 -375 141 -480 30 -104 68 -235 85 -290 16 -55 33 -113 38 -130 4 -16 32
-115 63 -220 266 -908 440 -1505 447 -1530 5 -16 35 -122 68 -235 33 -113 106
-362 162 -555 56 -192 125 -426 152 -520 28 -93 74 -253 103 -355 29 -102 88
-302 130 -445 42 -143 82 -281 90 -306 l13 -47 -294 0 -294 0 -24 82 c-14 44
-50 167 -80 271 -73 252 -158 546 -246 845 -40 135 -76 259 -80 275 -8 27 -44
151 -143 490 -20 66 -57 192 -82 280 -129 443 -170 582 -245 840 -45 154 -100
341 -122 415 -49 167 -67 231 -72 250 -2 8 -27 94 -56 190 -28 96 -53 182 -55
190 -2 8 -43 148 -90 310 -47 162 -88 302 -90 310 -6 23 -123 423 -151 515
-44 146 -115 390 -119 406 -4 18 -100 351 -114 394 -6 17 -23 77 -40 135 -16
58 -52 182 -80 275 -27 94 -70 242 -96 330 -25 88 -50 174 -55 190 -12 38 -66
224 -73 250 -8 30 -135 465 -146 500 -6 17 -23 77 -40 135 -16 58 -64 222
-106 365 -42 143 -81 275 -86 293 -5 17 -13 47 -18 65 -14 49 -144 493 -191
652 -23 77 -46 156 -51 175 -13 49 -16 59 -97 335 -45 153 -191 650 -307 1050
-24 83 -67 229 -95 325 -55 185 -67 230 -76 269 -3 14 -7 28 -9 32 -3 4 -21
63 -40 131 -20 67 -47 159 -60 203 -13 44 -71 242 -129 440 -87 300 -120 396
-196 575 -115 271 -151 343 -236 471 -92 138 -264 311 -399 401 -165 110 -324
181 -520 233 l-90 24 2591 1 2591 0 27 -102z m9801 81 c-280 -68 -455 -171
-586 -344 -21 -28 -39 -55 -39 -59 0 -3 -11 -23 -23 -44 -52 -82 -101 -266
-115 -432 -4 -47 -7 -1141 -7 -2432 0 -1292 -3 -2348 -8 -2348 -4 0 -78 35
-165 79 l-157 78 -140 8 c-77 4 -167 9 -200 10 -71 4 -237 13 -350 20 -44 3
-132 7 -195 10 l-116 6 -13 -38 c-48 -134 -233 -306 -465 -429 -47 -25 -87
-50 -87 -55 -1 -5 -2 -12 -3 -16 -1 -5 -6 -33 -10 -63 -4 -30 -9 -62 -11 -70
-2 -8 -6 -35 -10 -60 -3 -25 -15 -101 -26 -170 -11 -69 -21 -136 -24 -150 -2
-14 -6 -44 -10 -68 l-7 -43 -69 106 c-95 146 -167 242 -271 362 -90 104 -260
268 -278 268 -5 0 -69 -60 -143 -132 -73 -73 -141 -133 -151 -133 -9 0 -30 7
-46 15 -17 9 -31 12 -31 8 -1 -5 -3 -37 -4 -72 l-3 -63 54 -24 c30 -13 60 -24
67 -24 7 0 68 56 137 125 l125 125 73 -76 c45 -46 70 -80 65 -87 -3 -7 -43
-61 -88 -122 -45 -60 -90 -123 -101 -139 l-21 -28 39 -102 c22 -55 41 -108 43
-116 2 -8 13 -39 24 -69 15 -38 20 -67 17 -100 -3 -25 -8 -80 -11 -121 -3 -41
-8 -95 -10 -120 -2 -25 -7 -79 -10 -120 -4 -41 -7 -76 -8 -76 -1 -1 -90 -12
-197 -25 l-195 -24 -1 -3030 c-1 -2691 -3 -3145 -19 -3205 -2 -8 -6 -33 -10
-54 -7 -53 -44 -196 -55 -217 -9 -15 -72 -16 -807 -16 l-798 -1 75 25 c180 58
327 157 456 308 97 114 178 258 234 419 27 78 37 113 54 186 2 8 9 49 16 90 6
41 14 86 17 100 4 14 7 2615 8 5780 l2 5755 62 235 c34 129 64 242 66 250 2 8
31 122 65 254 34 131 63 246 66 255 2 9 18 71 36 139 l32 122 2170 -1 2171 0
-80 -20z m-4848 -4813 l1 -1595 -29 -6 c-23 -5 -31 -14 -38 -43 -66 -250 -100
-386 -97 -389 2 -2 31 64 66 147 109 261 98 597 97 -2897 0 -1766 -4 -3082 -9
-3128 -8 -66 -24 -150 -53 -275 -14 -62 -110 -274 -138 -306 -7 -8 -32 -40
-56 -71 -54 -71 -139 -145 -217 -189 -54 -31 -179 -76 -249 -90 -16 -3 -234
-8 -482 -9 l-453 -3 6 27 c9 36 100 393 316 1231 54 212 137 534 183 715 47
182 123 479 170 660 47 182 123 479 170 660 46 182 107 418 135 525 53 206
179 696 261 1015 123 478 192 769 183 772 -5 2 -54 35 -109 73 -55 38 -101 66
-102 62 -6 -18 -85 -319 -88 -337 -6 -24 -70 -270 -118 -450 -39 -142 -97
-365 -157 -600 -21 -82 -66 -256 -100 -385 -33 -129 -62 -239 -63 -245 -22
-94 -153 -583 -156 -579 -2 2 -44 142 -92 311 -225 795 -299 1061 -299 1082 0
12 9 59 21 104 11 45 22 89 24 97 2 8 40 157 85 330 45 173 113 437 151 585
38 149 101 394 140 545 39 151 72 282 74 290 2 8 25 101 53 205 58 223 64 246
68 263 1 7 14 58 29 114 15 56 28 109 30 117 4 20 76 299 116 450 17 63 32
121 34 130 3 17 294 1148 326 1271 11 41 22 82 24 90 4 19 124 488 160 625 25
96 93 364 100 395 2 8 11 40 19 70 8 30 25 94 37 143 12 48 23 87 24 87 1 0 2
-718 2 -1594z m3183 -791 c187 -9 283 -15 287 -19 2 -1 -30 -19 -71 -39 -84
-40 -74 -30 -316 -317 -95 -113 -179 -212 -186 -220 -14 -17 25 -62 248 -287
l92 -92 -78 -188 c-43 -103 -82 -197 -86 -208 -5 -11 -20 -47 -34 -79 -15 -32
-25 -60 -24 -62 4 -3 8 0 607 434 244 177 446 320 448 318 3 -2 -28 -71 -67
-153 -51 -103 -112 -205 -203 -338 -72 -104 -163 -237 -202 -295 -40 -58 -100
-145 -134 -195 -34 -49 -70 -93 -80 -96 -10 -4 -44 -10 -75 -14 l-58 -8 36
-36 c20 -20 36 -40 36 -45 0 -14 -294 -438 -307 -443 -7 -3 -27 0 -45 6 -18 6
-44 12 -58 15 -22 3 -233 54 -795 192 -82 20 -156 37 -164 37 -7 0 -51 43 -96
96 -179 208 -225 263 -225 269 0 6 239 163 328 217 68 41 192 127 192 133 0 4
18 118 40 255 22 136 42 262 44 280 2 17 11 73 20 122 8 50 17 108 20 130 4
22 11 73 17 112 l12 73 83 46 c162 87 325 229 407 352 l42 63 110 -6 c61 -3
166 -7 235 -10z m710 -120 c96 -48 177 -91 180 -96 3 -4 6 -30 5 -56 l0 -48
-55 -2 c-30 -1 -107 -15 -170 -33 -63 -17 -122 -32 -130 -34 -8 -2 -85 -22
-171 -45 -86 -23 -159 -41 -162 -41 -6 0 8 32 71 170 74 163 112 251 112 260
0 19 32 26 88 19 43 -5 101 -29 232 -94z m-7019 -1642 c11 -29 8 -29 -22 3
-21 23 -22 26 -5 23 10 -2 22 -14 27 -26z m-5685 -3900 c1 -39 21 -253 30
-318 5 -42 6 -48 24 -155 63 -392 175 -750 342 -1084 53 -107 136 -250 176
-303 27 -37 28 -32 -35 -188 -78 -192 -215 -446 -294 -546 l-28 -36 -896 0
c-492 0 -895 3 -895 6 0 4 33 17 73 29 101 31 256 108 357 177 47 32 87 60 90
64 3 3 23 20 45 36 64 48 235 223 306 315 206 264 365 565 480 910 51 153 108
363 124 455 3 17 8 37 10 45 6 21 14 67 21 120 3 25 7 52 9 60 2 8 7 35 10 60
3 25 8 54 9 65 2 11 7 54 11 95 4 41 9 82 11 90 1 8 3 39 3 68 1 28 5 52 9 52
4 0 8 -8 8 -17z"/>
<path d="M6068 12054 c-31 -54 -94 -167 -140 -249 l-84 -151 15 -59 c14 -52
22 -64 76 -108 33 -27 71 -59 85 -71 134 -114 241 -194 265 -199 17 -3 50 -8
75 -11 247 -29 304 -35 307 -33 1 2 -23 95 -55 206 l-57 204 -101 39 -100 40
-36 76 c-20 43 -56 120 -79 172 -24 52 -60 129 -80 169 l-36 75 -55 -100z"/>
<path d="M4741 11483 c-13 -43 -33 -103 -44 -133 -17 -48 -21 -87 -24 -295 -3
-132 -2 -237 2 -234 3 4 48 141 98 305 92 299 92 299 120 298 29 -1 29 -1 29
71 0 25 -1 50 -1 55 -1 6 -34 10 -79 10 l-77 0 -24 -77z"/>
</g>
</svg>
